<svg width="60" height="69" viewBox="0 0 60 69" fill="none" xmlns="http://www.w3.org/2000/svg">
<path d="M0.528 69V0.839996H25.968C33.456 0.839996 39.696 2.376 44.688 5.44799C49.744 8.456 53.552 12.552 56.112 17.736C58.672 22.856 59.952 28.552 59.952 34.824C59.952 41.736 58.544 47.752 55.728 52.872C52.912 57.992 48.944 61.96 43.824 64.776C38.768 67.592 32.816 69 25.968 69H0.528ZM43.92 34.824C43.92 30.856 43.216 27.368 41.808 24.36C40.4 21.288 38.352 18.92 35.664 17.256C32.976 15.528 29.744 14.664 25.968 14.664H16.272V55.176H25.968C29.808 55.176 33.04 54.312 35.664 52.584C38.352 50.792 40.4 48.36 41.808 45.288C43.216 42.152 43.92 38.664 43.92 34.824Z" fill="black"/>
</svg>
