<svg width="69" height="70" viewBox="0 0 69 70" fill="none" xmlns="http://www.w3.org/2000/svg">
<path d="M34.384 69.576C29.264 69.576 24.624 68.616 20.464 66.696C16.368 64.712 12.816 62.088 9.808 58.824C6.864 55.496 4.592 51.784 2.992 47.688C1.392 43.528 0.592 39.24 0.592 34.824C0.592 30.28 1.424 25.96 3.088 21.864C4.816 17.768 7.184 14.12 10.192 10.92C13.264 7.656 16.88 5.096 21.04 3.23999C25.2 1.384 29.744 0.455996 34.672 0.455996C39.728 0.455996 44.304 1.448 48.4 3.432C52.56 5.352 56.112 7.976 59.056 11.304C62.064 14.632 64.368 18.376 65.968 22.536C67.568 26.632 68.368 30.824 68.368 35.112C68.368 39.656 67.536 43.976 65.872 48.072C64.208 52.168 61.84 55.848 58.768 59.112C55.696 62.312 52.08 64.872 47.92 66.792C43.824 68.648 39.312 69.576 34.384 69.576ZM16.624 35.016C16.624 37.64 17.008 40.2 17.776 42.696C18.544 45.128 19.664 47.304 21.136 49.224C22.672 51.144 24.56 52.68 26.8 53.832C29.04 54.984 31.6 55.56 34.48 55.56C37.488 55.56 40.112 54.984 42.352 53.832C44.592 52.616 46.448 51.016 47.92 49.032C49.392 47.048 50.48 44.84 51.184 42.408C51.952 39.912 52.336 37.384 52.336 34.824C52.336 32.2 51.952 29.672 51.184 27.24C50.416 24.808 49.264 22.632 47.728 20.712C46.192 18.728 44.304 17.192 42.064 16.104C39.824 15.016 37.296 14.472 34.48 14.472C31.472 14.472 28.848 15.048 26.608 16.2C24.432 17.352 22.576 18.92 21.04 20.904C19.568 22.824 18.448 25.032 17.68 27.528C16.976 29.96 16.624 32.456 16.624 35.016Z" fill="black"/>
</svg>
