<svg width="58" height="69" viewBox="0 0 58 69" fill="none" xmlns="http://www.w3.org/2000/svg">
<path d="M0.528 69V0.839996H31.248C34.448 0.839996 37.392 1.512 40.08 2.856C42.832 4.136 45.2 5.896 47.184 8.136C49.168 10.312 50.704 12.776 51.792 15.528C52.944 18.28 53.52 21.064 53.52 23.88C53.52 26.696 53.072 29.384 52.176 31.944C51.28 34.44 50 36.712 48.336 38.76C46.672 40.744 44.688 42.376 42.384 43.656L57.36 69H39.984L26.928 47.016H16.272V69H0.528ZM16.272 33.288H30.672C31.952 33.288 33.072 32.904 34.032 32.136C35.056 31.304 35.888 30.184 36.528 28.776C37.168 27.368 37.488 25.736 37.488 23.88C37.488 22.024 37.104 20.424 36.336 19.08C35.632 17.672 34.736 16.584 33.648 15.816C32.56 15.048 31.408 14.664 30.192 14.664H16.272V33.288Z" fill="black"/>
</svg>
