<svg width="62" height="70" viewBox="0 0 62 70" fill="none" xmlns="http://www.w3.org/2000/svg">
<path d="M30.808 69.576C25.368 69.576 20.728 68.68 16.888 66.888C13.048 65.032 9.912 62.536 7.48 59.4C5.112 56.2 3.352 52.584 2.2 48.552C1.112 44.456 0.568 40.168 0.568 35.688V0.839996H16.312V35.688C16.312 38.248 16.568 40.744 17.08 43.176C17.592 45.544 18.424 47.656 19.576 49.512C20.728 51.368 22.2 52.84 23.992 53.928C25.848 55.016 28.12 55.56 30.808 55.56C33.56 55.56 35.864 55.016 37.72 53.928C39.576 52.776 41.048 51.272 42.136 49.416C43.224 47.496 44.024 45.352 44.536 42.984C45.048 40.616 45.304 38.184 45.304 35.688V0.839996H61.048V35.688C61.048 40.424 60.44 44.84 59.224 48.936C58.072 53.032 56.28 56.648 53.848 59.784C51.416 62.856 48.28 65.256 44.44 66.984C40.664 68.712 36.12 69.576 30.808 69.576Z" fill="black"/>
</svg>
